<?xml version="1.0" standalone="no"?><!DOCTYPE svg PUBLIC "-//W3C//DTD SVG 1.1//EN"
        "http://www.w3.org/Graphics/SVG/1.1/DTD/svg11.dtd">
<svg class="icon" width="200px" height="200.00px" viewBox="0 0 1024 1024" version="1.1"
     xmlns="http://www.w3.org/2000/svg">
    <path d="M605.8432 102.4c-89.03424 136.17152-139.66592 288.06784-158.87488 448.6976l187.68768 0c-15.712 61.10592-25.31712 121.34272-27.05792 180.70784 99.50976-9.60384 186.8032-35.77728 240.07296-69.83936l31.424 40.15744c-73.33632 42.76992-168.49152 70.70976-271.49824 81.18528 1.5744 31.05152 5.0944 61.14944 10.4832 91.06432 0.7296 3.95776 1.46048 7.9168 2.26432 11.86816 0.05888 0.29952 0.11904 0.59904 0.17792 0.89856 3.17824 15.49952 6.97344 30.94144 11.31904 46.32192L1024 933.46176 1024 102.4 605.8432 102.4zM744.6528 351.18208l-53.25824 0 0-123.08352 53.25824 0L744.6528 351.18208z" fill="#e06236"/>
</svg>
